<svg xmlns="http://www.w3.org/2000/svg" width="575" height="240" preserveAspectRatio="none">
    <g mask="url(&quot;#SvgjsMask1018&quot;)" fill="none">
        <path
            d="M-25.16 192.56h0M-25.16 192.56l4.26 52.48M-25.16 192.56l73.71-.55M-25.16 192.56l62.13 69.52M-25.16 192.56l124.35-23.81M-25.16 192.56l-21.02 132.21M-20.9 245.04h0M-20.9 245.04l57.87 17.04M-20.9 245.04l-25.28 79.73M-20.9 245.04l69.45-53.03M-20.9 245.04l40.99 91.59M-20.9 245.04l118.35 74.73M-46.18 324.77h0M-46.18 324.77l66.27 11.86M-46.18 324.77l83.15-62.69M48.55 192.01h0M48.55 192.01l50.64-23.26M48.55 192.01l-11.58 70.07M36.97 262.08h0M36.97 262.08l-16.88 74.55M36.97 262.08l60.48 57.69M36.97 262.08l82.75-18.95M20.09 336.63h0M20.09 336.63l77.36-16.86M20.09 336.63l99.63-93.5M20.09 336.63l28.46-144.62M99.19 168.75h0M99.19 168.75l20.53 74.38M99.19 168.75l82.38-6.42M99.19 168.75l-62.22 93.33M99.19 168.75L186.7 265M119.72 243.13h0M119.72 243.13L186.7 265M97.45 319.77h0M97.45 319.77l73.63-9.2M181.57 162.33h0M181.57 162.33L240.01 113M181.57 162.33l79.71 7.01M186.7 265h0M186.7 265l-15.62 45.57M186.7 265l51.86 1.64M171.08 310.57h0M240.01 113h0M240.01 113l21.27 56.34M240.01 113l75.64 12.61M240.01 113l95.16 56.24M240.01 113l141.08-3.34M261.28 169.34h0M261.28 169.34l54.37-43.73M261.28 169.34l73.89-.1M238.56 266.64h0M238.56 266.64l29.21 39.6M238.56 266.64l-67.48 43.93M238.56 266.64L320.18 244M238.56 266.64l22.72-97.3M238.56 266.64l-56.99-104.31M267.77 306.24h0M267.77 306.24l67.87 29.16M267.77 306.24L320.18 244M267.77 306.24L186.7 265M267.77 306.24l-96.69 4.33M267.77 306.24l-6.49-136.9M315.65 125.61h0M315.65 125.61l19.52 43.63M315.65 125.61l65.44-15.95M335.17 169.24h0M320.18 244h0M320.18 244l68.45-6.16M320.18 244l14.99-74.76M320.18 244l15.46 91.4M335.64 335.4h0M335.64 335.4l75.01-16.28M335.64 335.4l52.99-97.56M335.64 335.4l-97.08-68.76M388.24-51.15h0M388.24-51.15l17.11 79.53M388.24-51.15l83.85 17.99M388.24-51.15l75.64 80.85M388.24-51.15l-7.15 160.81M388.24-51.15l162.71 6.38M405.35 28.38h0M405.35 28.38l58.53 1.32M405.35 28.38l-24.26 81.28M405.35 28.38l66.74-61.54M405.35 28.38l67.54 88.99M381.09 109.66h0M381.09 109.66l-45.92 59.58M381.09 109.66l31.52 75.09M412.61 184.75h0M412.61 184.75l-23.98 53.09M412.61 184.75l-77.44-15.51M388.63 237.84h0M388.63 237.84l61.29 26.48M388.63 237.84l22.02 81.28M410.65 319.12h0M410.65 319.12l39.27-54.8M410.65 319.12L482 335.28M410.65 319.12L320.18 244M410.65 319.12l131.41 15.75M472.09-33.16h0M472.09-33.16l-8.21 62.86M472.09-33.16l78.86-11.61M472.09-33.16l84.67 69.76M472.09-33.16l.8 150.53M463.88 29.7h0M463.88 29.7l9.01 87.67M463.88 29.7l92.88 6.9M463.88 29.7l69 83.07M472.89 117.37h0M472.89 117.37l59.99-4.6M472.89 117.37l-60.28 67.38M449.92 264.32h0M482 335.28h0M482 335.28l60.06-.41M482 335.28l-32.08-70.96M550.95-44.77h0M550.95-44.77l77.61-4.46M556.76 36.6h0M556.76 36.6l48.12 9.11M556.76 36.6l-23.88 76.17M556.76 36.6l-5.81-81.37M532.88 112.77h0M535.28 191.04h0M535.28 191.04l72.63-15.05M535.28 191.04l-2.4-78.27M535.28 191.04l18.43 78.35M535.28 191.04l69.11-66.64M553.71 269.39h0M553.71 269.39l-11.65 65.48M553.71 269.39l70.99 40.43M542.06 334.87h0M542.06 334.87l82.64-25.05M542.06 334.87l-92.14-70.55M628.56-49.23h0M628.56-49.23l-23.68 94.94M628.56-49.23l-71.8 85.83M628.56-49.23L472.09-33.16M628.56-49.23L604.39 124.4M628.56-49.23L463.88 29.7M604.88 45.71h0M604.88 45.71l-.49 78.69M604.88 45.71l-72 67.06M604.88 45.71l-53.93-90.48M604.39 124.4h0M604.39 124.4l3.52 51.59M604.39 124.4l-71.51-11.63M607.91 175.99h0M607.91 175.99l-75.03-63.22M607.91 175.99l-54.2 93.4M624.7 309.82h0M624.7 309.82l-16.79-133.83M624.7 309.82L482 335.28M624.7 309.82l-89.42-118.78M624.7 309.82l-174.78-45.5"
            stroke="#132e65" stroke-width="1.5" />
        <circle r="5" cx="-25.16" cy="192.56" fill="#132e65" />
        <circle r="5" cx="-20.9" cy="245.04" fill="#132e65" />
        <circle r="5" cx="-46.18" cy="324.77" fill="#132e65" />
        <circle r="5" cx="48.55" cy="192.01" fill="#132e65" />
        <circle r="5" cx="36.97" cy="262.08" fill="#132e65" />
        <circle r="5" cx="20.09" cy="336.63" fill="#132e65" />
        <circle r="5" cx="99.19" cy="168.75" fill="#132e65" />
        <circle r="5" cx="119.72" cy="243.13" fill="#132e65" />
        <circle r="5" cx="97.45" cy="319.77" fill="#132e65" />
        <circle r="5" cx="181.57" cy="162.33" fill="#132e65" />
        <circle r="5" cx="186.7" cy="265" fill="#132e65" />
        <circle r="5" cx="171.08" cy="310.57" fill="#132e65" />
        <circle r="5" cx="240.01" cy="113" fill="#132e65" />
        <circle r="5" cx="261.28" cy="169.34" fill="#132e65" />
        <circle r="5" cx="238.56" cy="266.64" fill="#132e65" />
        <circle r="5" cx="267.77" cy="306.24" fill="#132e65" />
        <circle r="5" cx="315.65" cy="125.61" fill="#132e65" />
        <circle r="5" cx="335.17" cy="169.24" fill="#132e65" />
        <circle r="5" cx="320.18" cy="244" fill="#132e65" />
        <circle r="5" cx="335.64" cy="335.4" fill="#132e65" />
        <circle r="5" cx="388.24" cy="-51.15" fill="#132e65" />
        <circle r="5" cx="405.35" cy="28.38" fill="#132e65" />
        <circle r="5" cx="381.09" cy="109.66" fill="#132e65" />
        <circle r="5" cx="412.61" cy="184.75" fill="#132e65" />
        <circle r="5" cx="388.63" cy="237.84" fill="#132e65" />
        <circle r="5" cx="410.65" cy="319.12" fill="#132e65" />
        <circle r="5" cx="472.09" cy="-33.16" fill="#132e65" />
        <circle r="5" cx="463.88" cy="29.7" fill="#132e65" />
        <circle r="5" cx="472.89" cy="117.37" fill="#132e65" />
        <circle r="5" cx="449.92" cy="264.32" fill="#132e65" />
        <circle r="5" cx="482" cy="335.28" fill="#132e65" />
        <circle r="5" cx="550.95" cy="-44.77" fill="#132e65" />
        <circle r="5" cx="556.76" cy="36.6" fill="#132e65" />
        <circle r="5" cx="532.88" cy="112.77" fill="#132e65" />
        <circle r="5" cx="535.28" cy="191.04" fill="#132e65" />
        <circle r="5" cx="553.71" cy="269.39" fill="#132e65" />
        <circle r="5" cx="542.06" cy="334.87" fill="#132e65" />
        <circle r="5" cx="628.56" cy="-49.23" fill="#132e65" />
        <circle r="5" cx="604.88" cy="45.71" fill="#132e65" />
        <circle r="5" cx="604.39" cy="124.4" fill="#132e65" />
        <circle r="5" cx="607.91" cy="175.99" fill="#132e65" />
        <circle r="5" cx="624.7" cy="309.82" fill="#132e65" />
        <path
            d="M264.05 313.47h0M264.05 313.47l-15-64.49M264.05 313.47l-76.75 3.55M264.05 313.47l74.88 23.04M463 33.51h0M463 33.51l67.43-3.16M463 33.51l8.65 77.08M463 33.51l7.1-82.77M473.22 191.68h0M473.22 191.68l-18.78 53.1M473.22 191.68l-78.62 3.38M530.43 30.35h0M530.43 30.35l-5.33-70.27M611.81 40.08h0M611.81 40.08l-81.38-9.73M-31.48 251.1h0M-31.48 251.1l-1.5 73.96M-31.48 251.1l84.37 7.95M-31.48 251.1l59.75 86.6M-32.98 325.06h0M-32.98 325.06l61.25 12.64M-32.98 325.06l85.87-66.01M-32.98 325.06L95.4 261.49M-32.98 325.06l147.4-2.24M-32.98 325.06l220.28-8.04M52.89 259.05h0M52.89 259.05l42.51 2.44M52.89 259.05L28.27 337.7M28.27 337.7h0M28.27 337.7l86.15-14.88M28.27 337.7l67.13-76.21M95.4 261.49h0M95.4 261.49l19.02 61.33M95.4 261.49l83.52-20.85M114.42 322.82h0M114.42 322.82l72.88-5.8M114.42 322.82l-61.53-63.77M114.42 322.82l64.5-82.18M189.83 193.69h0M189.83 193.69l-10.91 46.95M189.83 193.69l77.75-21.36M178.92 240.64h0M178.92 240.64l70.13 8.34M187.3 317.02h0M187.3 317.02l-8.38-76.38M187.3 317.02l61.75-68.04M187.3 317.02l-91.9-55.53M267.58 172.33h0M267.58 172.33l42.44 7.45M267.58 172.33l40.56 62.49M267.58 172.33l-18.53 76.65M267.58 172.33l-88.66 68.31M267.58 172.33l127.02 22.73M249.05 248.98h0M249.05 248.98l59.09-14.16M249.05 248.98l-59.22-55.29M310.02 179.78h0M310.02 179.78l-1.88 55.04M310.02 179.78l84.58 15.28M310.02 179.78l-60.97 69.2M308.14 234.82h0M308.14 234.82l79.44 22.24M308.14 234.82l-44.09 78.65M338.93 336.51h0M338.93 336.51l52-3.52M338.93 336.51l48.65-79.45M338.93 336.51l-30.79-101.69M338.93 336.51l-89.88-87.53M403.59 110.02h0M403.59 110.02l68.06.57M403.59 110.02l-8.99 85.04M403.59 110.02L463 33.51M394.6 195.06h0M394.6 195.06l-7.02 62M394.6 195.06l59.84 49.72M394.6 195.06l-86.46 39.76M387.58 257.06h0M387.58 257.06l66.86-12.28M387.58 257.06l3.35 75.93M387.58 257.06l88.31 57.57M390.93 332.99h0M390.93 332.99l84.96-18.36M390.93 332.99l63.51-88.21M470.1-49.26h0M470.1-49.26l55 9.34M470.1-49.26l60.33 79.61M470.1-49.26l1.55 159.85M470.1-49.26l51.2 158.31M470.1-49.26l141.71 89.34M471.65 110.59h0M471.65 110.59l49.65-1.54M471.65 110.59l1.57 81.09M454.44 244.78h0M454.44 244.78l21.45 69.85M454.44 244.78l75.99 8.05M475.89 314.63h0M475.89 314.63l76.02-7.14M475.89 314.63l54.54-61.8M525.1-39.92h0M525.1-39.92L463 33.51M525.1-39.92l86.71 80M525.1-39.92l-3.8 148.97M525.1-39.92l-53.45 150.51M521.3 109.05h0M521.3 109.05l9.13-78.7M521.3 109.05l33.16 77.55M554.46 186.6h0M554.46 186.6l63.15-12.36M554.46 186.6l-24.03 66.23M554.46 186.6l-81.24 5.08M554.46 186.6l-82.81-76.01M554.46 186.6l-100.02 58.18M530.43 252.83h0M530.43 252.83l21.48 54.66M530.43 252.83l-57.21-61.15M551.91 307.49h0M551.91 307.49l60.86-1M551.91 307.49l-97.47-62.71M551.91 307.49l2.55-120.89M551.91 307.49l-78.69-115.81M617.61 174.24h0M617.61 174.24l-96.31-65.19M612.77 306.49h0M612.77 306.49l-82.34-53.66M612.77 306.49l4.84-132.25"
            stroke="hsl(228.5, 77.2%, 51.5%)" stroke-width="1.5" />
        <circle r="25" cx="264.05" cy="313.47" fill="url(#prefix__SvgjsRadialGradient1019)" />
        <circle r="25" cx="463" cy="33.51" fill="url(#prefix__SvgjsRadialGradient1019)" />
        <circle r="25" cx="473.22" cy="191.68" fill="url(#prefix__SvgjsRadialGradient1019)" />
        <circle r="25" cx="530.43" cy="30.35" fill="url(#prefix__SvgjsRadialGradient1019)" />
        <circle r="25" cx="611.81" cy="40.08" fill="url(#prefix__SvgjsRadialGradient1019)" />
        <circle r="5" cx="-31.48" cy="251.1" fill="#8b9ad9" />
        <circle r="5" cx="-32.98" cy="325.06" fill="#8b9ad9" />
        <circle r="5" cx="52.89" cy="259.05" fill="#8b9ad9" />
        <circle r="5" cx="28.27" cy="337.7" fill="#8b9ad9" />
        <circle r="5" cx="95.4" cy="261.49" fill="#8b9ad9" />
        <circle r="5" cx="114.42" cy="322.82" fill="#8b9ad9" />
        <circle r="5" cx="189.83" cy="193.69" fill="#8b9ad9" />
        <circle r="5" cx="178.92" cy="240.64" fill="#8b9ad9" />
        <circle r="5" cx="187.3" cy="317.02" fill="#8b9ad9" />
        <circle r="5" cx="267.58" cy="172.33" fill="#8b9ad9" />
        <circle r="5" cx="249.05" cy="248.98" fill="#8b9ad9" />
        <circle r="5" cx="310.02" cy="179.78" fill="#8b9ad9" />
        <circle r="5" cx="308.14" cy="234.82" fill="#8b9ad9" />
        <circle r="5" cx="338.93" cy="336.51" fill="#8b9ad9" />
        <circle r="5" cx="403.59" cy="110.02" fill="#8b9ad9" />
        <circle r="5" cx="394.6" cy="195.06" fill="#8b9ad9" />
        <circle r="5" cx="387.58" cy="257.06" fill="#8b9ad9" />
        <circle r="5" cx="390.93" cy="332.99" fill="#8b9ad9" />
        <circle r="5" cx="470.1" cy="-49.26" fill="#8b9ad9" />
        <circle r="5" cx="471.65" cy="110.59" fill="#8b9ad9" />
        <circle r="5" cx="454.44" cy="244.78" fill="#8b9ad9" />
        <circle r="5" cx="475.89" cy="314.63" fill="#8b9ad9" />
        <circle r="5" cx="525.1" cy="-39.92" fill="#8b9ad9" />
        <circle r="5" cx="521.3" cy="109.05" fill="#8b9ad9" />
        <circle r="5" cx="554.46" cy="186.6" fill="#8b9ad9" />
        <circle r="5" cx="530.43" cy="252.83" fill="#8b9ad9" />
        <circle r="5" cx="551.91" cy="307.49" fill="#8b9ad9" />
        <circle r="5" cx="617.61" cy="174.24" fill="#8b9ad9" />
        <circle r="5" cx="612.77" cy="306.49" fill="#8b9ad9" />
    </g>
    <defs>
        <radialGradient id="prefix__SvgjsRadialGradient1019">
            <stop stop-color="#fff" offset=".1" />
            <stop stop-color="#1735b3" offset=".2" />
            <stop stop-color="rgba(23, 53, 179, 0)" offset="1" />
        </radialGradient>
        <mask id="prefix__SvgjsMask1018">
            <path fill="#fff" d="M0 0h575v240H0z" />
        </mask>
    </defs>
</svg>