<svg xmlns="http://www.w3.org/2000/svg" version="1.1" xmlns:xlink="http://www.w3.org/1999/xlink" xmlns:svgjs="http://svgjs.com/svgjs" width="575" height="240" preserveAspectRatio="none" viewBox="0 0 575 240">
    <g mask="url(&quot;#SvgjsMask1018&quot;)" fill="none">
        <path d="M-25.16 192.56L-25.16 192.56" stroke="#132e65" stroke-width="1.5"></path>
        <path d="M-25.16 192.56L-20.9 245.04" stroke="#132e65" stroke-width="1.5"></path>
        <path d="M-25.16 192.56L48.55 192.01" stroke="#132e65" stroke-width="1.5"></path>
        <path d="M-25.16 192.56L36.97 262.08" stroke="#132e65" stroke-width="1.5"></path>
        <path d="M-25.16 192.56L99.19 168.75" stroke="#132e65" stroke-width="1.5"></path>
        <path d="M-25.16 192.56L-46.18 324.77" stroke="#132e65" stroke-width="1.5"></path>
        <path d="M-20.9 245.04L-20.9 245.04" stroke="#132e65" stroke-width="1.5"></path>
        <path d="M-20.9 245.04L36.97 262.08" stroke="#132e65" stroke-width="1.5"></path>
        <path d="M-20.9 245.04L-46.18 324.77" stroke="#132e65" stroke-width="1.5"></path>
        <path d="M-20.9 245.04L48.55 192.01" stroke="#132e65" stroke-width="1.5"></path>
        <path d="M-20.9 245.04L20.09 336.63" stroke="#132e65" stroke-width="1.5"></path>
        <path d="M-20.9 245.04L97.45 319.77" stroke="#132e65" stroke-width="1.5"></path>
        <path d="M-46.18 324.77L-46.18 324.77" stroke="#132e65" stroke-width="1.5"></path>
        <path d="M-46.18 324.77L20.09 336.63" stroke="#132e65" stroke-width="1.5"></path>
        <path d="M-46.18 324.77L36.97 262.08" stroke="#132e65" stroke-width="1.5"></path>
        <path d="M48.55 192.01L48.55 192.01" stroke="#132e65" stroke-width="1.5"></path>
        <path d="M48.55 192.01L99.19 168.75" stroke="#132e65" stroke-width="1.5"></path>
        <path d="M48.55 192.01L36.97 262.08" stroke="#132e65" stroke-width="1.5"></path>
        <path d="M36.97 262.08L36.97 262.08" stroke="#132e65" stroke-width="1.5"></path>
        <path d="M36.97 262.08L20.09 336.63" stroke="#132e65" stroke-width="1.5"></path>
        <path d="M36.97 262.08L97.45 319.77" stroke="#132e65" stroke-width="1.5"></path>
        <path d="M36.97 262.08L119.72 243.13" stroke="#132e65" stroke-width="1.5"></path>
        <path d="M20.09 336.63L20.09 336.63" stroke="#132e65" stroke-width="1.5"></path>
        <path d="M20.09 336.63L97.45 319.77" stroke="#132e65" stroke-width="1.5"></path>
        <path d="M20.09 336.63L119.72 243.13" stroke="#132e65" stroke-width="1.5"></path>
        <path d="M20.09 336.63L48.55 192.01" stroke="#132e65" stroke-width="1.5"></path>
        <path d="M99.19 168.75L99.19 168.75" stroke="#132e65" stroke-width="1.5"></path>
        <path d="M99.19 168.75L119.72 243.13" stroke="#132e65" stroke-width="1.5"></path>
        <path d="M99.19 168.75L181.57 162.33" stroke="#132e65" stroke-width="1.5"></path>
        <path d="M99.19 168.75L36.97 262.08" stroke="#132e65" stroke-width="1.5"></path>
        <path d="M99.19 168.75L186.7 265" stroke="#132e65" stroke-width="1.5"></path>
        <path d="M119.72 243.13L119.72 243.13" stroke="#132e65" stroke-width="1.5"></path>
        <path d="M119.72 243.13L186.7 265" stroke="#132e65" stroke-width="1.5"></path>
        <path d="M97.45 319.77L97.45 319.77" stroke="#132e65" stroke-width="1.5"></path>
        <path d="M97.45 319.77L171.08 310.57" stroke="#132e65" stroke-width="1.5"></path>
        <path d="M181.57 162.33L181.57 162.33" stroke="#132e65" stroke-width="1.5"></path>
        <path d="M181.57 162.33L240.01 113" stroke="#132e65" stroke-width="1.5"></path>
        <path d="M181.57 162.33L261.28 169.34" stroke="#132e65" stroke-width="1.5"></path>
        <path d="M186.7 265L186.7 265" stroke="#132e65" stroke-width="1.5"></path>
        <path d="M186.7 265L171.08 310.57" stroke="#132e65" stroke-width="1.5"></path>
        <path d="M186.7 265L238.56 266.64" stroke="#132e65" stroke-width="1.5"></path>
        <path d="M171.08 310.57L171.08 310.57" stroke="#132e65" stroke-width="1.5"></path>
        <path d="M240.01 113L240.01 113" stroke="#132e65" stroke-width="1.5"></path>
        <path d="M240.01 113L261.28 169.34" stroke="#132e65" stroke-width="1.5"></path>
        <path d="M240.01 113L315.65 125.61" stroke="#132e65" stroke-width="1.5"></path>
        <path d="M240.01 113L335.17 169.24" stroke="#132e65" stroke-width="1.5"></path>
        <path d="M240.01 113L381.09 109.66" stroke="#132e65" stroke-width="1.5"></path>
        <path d="M261.28 169.34L261.28 169.34" stroke="#132e65" stroke-width="1.5"></path>
        <path d="M261.28 169.34L315.65 125.61" stroke="#132e65" stroke-width="1.5"></path>
        <path d="M261.28 169.34L335.17 169.24" stroke="#132e65" stroke-width="1.5"></path>
        <path d="M238.56 266.64L238.56 266.64" stroke="#132e65" stroke-width="1.5"></path>
        <path d="M238.56 266.64L267.77 306.24" stroke="#132e65" stroke-width="1.5"></path>
        <path d="M238.56 266.64L171.08 310.57" stroke="#132e65" stroke-width="1.5"></path>
        <path d="M238.56 266.64L320.18 244" stroke="#132e65" stroke-width="1.5"></path>
        <path d="M238.56 266.64L261.28 169.34" stroke="#132e65" stroke-width="1.5"></path>
        <path d="M238.56 266.64L181.57 162.33" stroke="#132e65" stroke-width="1.5"></path>
        <path d="M267.77 306.24L267.77 306.24" stroke="#132e65" stroke-width="1.5"></path>
        <path d="M267.77 306.24L335.64 335.4" stroke="#132e65" stroke-width="1.5"></path>
        <path d="M267.77 306.24L320.18 244" stroke="#132e65" stroke-width="1.5"></path>
        <path d="M267.77 306.24L186.7 265" stroke="#132e65" stroke-width="1.5"></path>
        <path d="M267.77 306.24L171.08 310.57" stroke="#132e65" stroke-width="1.5"></path>
        <path d="M267.77 306.24L261.28 169.34" stroke="#132e65" stroke-width="1.5"></path>
        <path d="M315.65 125.61L315.65 125.61" stroke="#132e65" stroke-width="1.5"></path>
        <path d="M315.65 125.61L335.17 169.24" stroke="#132e65" stroke-width="1.5"></path>
        <path d="M315.65 125.61L381.09 109.66" stroke="#132e65" stroke-width="1.5"></path>
        <path d="M335.17 169.24L335.17 169.24" stroke="#132e65" stroke-width="1.5"></path>
        <path d="M320.18 244L320.18 244" stroke="#132e65" stroke-width="1.5"></path>
        <path d="M320.18 244L388.63 237.84" stroke="#132e65" stroke-width="1.5"></path>
        <path d="M320.18 244L335.17 169.24" stroke="#132e65" stroke-width="1.5"></path>
        <path d="M320.18 244L335.64 335.4" stroke="#132e65" stroke-width="1.5"></path>
        <path d="M335.64 335.4L335.64 335.4" stroke="#132e65" stroke-width="1.5"></path>
        <path d="M335.64 335.4L410.65 319.12" stroke="#132e65" stroke-width="1.5"></path>
        <path d="M335.64 335.4L388.63 237.84" stroke="#132e65" stroke-width="1.5"></path>
        <path d="M335.64 335.4L238.56 266.64" stroke="#132e65" stroke-width="1.5"></path>
        <path d="M388.24 -51.15L388.24 -51.15" stroke="#132e65" stroke-width="1.5"></path>
        <path d="M388.24 -51.15L405.35 28.38" stroke="#132e65" stroke-width="1.5"></path>
        <path d="M388.24 -51.15L472.09 -33.16" stroke="#132e65" stroke-width="1.5"></path>
        <path d="M388.24 -51.15L463.88 29.7" stroke="#132e65" stroke-width="1.5"></path>
        <path d="M388.24 -51.15L381.09 109.66" stroke="#132e65" stroke-width="1.5"></path>
        <path d="M388.24 -51.15L550.95 -44.77" stroke="#132e65" stroke-width="1.5"></path>
        <path d="M405.35 28.38L405.35 28.38" stroke="#132e65" stroke-width="1.5"></path>
        <path d="M405.35 28.38L463.88 29.7" stroke="#132e65" stroke-width="1.5"></path>
        <path d="M405.35 28.38L381.09 109.66" stroke="#132e65" stroke-width="1.5"></path>
        <path d="M405.35 28.38L472.09 -33.16" stroke="#132e65" stroke-width="1.5"></path>
        <path d="M405.35 28.38L472.89 117.37" stroke="#132e65" stroke-width="1.5"></path>
        <path d="M381.09 109.66L381.09 109.66" stroke="#132e65" stroke-width="1.5"></path>
        <path d="M381.09 109.66L335.17 169.24" stroke="#132e65" stroke-width="1.5"></path>
        <path d="M381.09 109.66L412.61 184.75" stroke="#132e65" stroke-width="1.5"></path>
        <path d="M412.61 184.75L412.61 184.75" stroke="#132e65" stroke-width="1.5"></path>
        <path d="M412.61 184.75L388.63 237.84" stroke="#132e65" stroke-width="1.5"></path>
        <path d="M412.61 184.75L335.17 169.24" stroke="#132e65" stroke-width="1.5"></path>
        <path d="M388.63 237.84L388.63 237.84" stroke="#132e65" stroke-width="1.5"></path>
        <path d="M388.63 237.84L449.92 264.32" stroke="#132e65" stroke-width="1.5"></path>
        <path d="M388.63 237.84L410.65 319.12" stroke="#132e65" stroke-width="1.5"></path>
        <path d="M410.65 319.12L410.65 319.12" stroke="#132e65" stroke-width="1.5"></path>
        <path d="M410.65 319.12L449.92 264.32" stroke="#132e65" stroke-width="1.5"></path>
        <path d="M410.65 319.12L482 335.28" stroke="#132e65" stroke-width="1.5"></path>
        <path d="M410.65 319.12L320.18 244" stroke="#132e65" stroke-width="1.5"></path>
        <path d="M410.65 319.12L542.06 334.87" stroke="#132e65" stroke-width="1.5"></path>
        <path d="M472.09 -33.16L472.09 -33.16" stroke="#132e65" stroke-width="1.5"></path>
        <path d="M472.09 -33.16L463.88 29.7" stroke="#132e65" stroke-width="1.5"></path>
        <path d="M472.09 -33.16L550.95 -44.77" stroke="#132e65" stroke-width="1.5"></path>
        <path d="M472.09 -33.16L556.76 36.6" stroke="#132e65" stroke-width="1.5"></path>
        <path d="M472.09 -33.16L472.89 117.37" stroke="#132e65" stroke-width="1.5"></path>
        <path d="M463.88 29.7L463.88 29.7" stroke="#132e65" stroke-width="1.5"></path>
        <path d="M463.88 29.7L472.89 117.37" stroke="#132e65" stroke-width="1.5"></path>
        <path d="M463.88 29.7L556.76 36.6" stroke="#132e65" stroke-width="1.5"></path>
        <path d="M463.88 29.7L532.88 112.77" stroke="#132e65" stroke-width="1.5"></path>
        <path d="M472.89 117.37L472.89 117.37" stroke="#132e65" stroke-width="1.5"></path>
        <path d="M472.89 117.37L532.88 112.77" stroke="#132e65" stroke-width="1.5"></path>
        <path d="M472.89 117.37L412.61 184.75" stroke="#132e65" stroke-width="1.5"></path>
        <path d="M449.92 264.32L449.92 264.32" stroke="#132e65" stroke-width="1.5"></path>
        <path d="M482 335.28L482 335.28" stroke="#132e65" stroke-width="1.5"></path>
        <path d="M482 335.28L542.06 334.87" stroke="#132e65" stroke-width="1.5"></path>
        <path d="M482 335.28L449.92 264.32" stroke="#132e65" stroke-width="1.5"></path>
        <path d="M550.95 -44.77L550.95 -44.77" stroke="#132e65" stroke-width="1.5"></path>
        <path d="M550.95 -44.77L628.56 -49.23" stroke="#132e65" stroke-width="1.5"></path>
        <path d="M556.76 36.6L556.76 36.6" stroke="#132e65" stroke-width="1.5"></path>
        <path d="M556.76 36.6L604.88 45.71" stroke="#132e65" stroke-width="1.5"></path>
        <path d="M556.76 36.6L532.88 112.77" stroke="#132e65" stroke-width="1.5"></path>
        <path d="M556.76 36.6L550.95 -44.77" stroke="#132e65" stroke-width="1.5"></path>
        <path d="M532.88 112.77L532.88 112.77" stroke="#132e65" stroke-width="1.5"></path>
        <path d="M535.28 191.04L535.28 191.04" stroke="#132e65" stroke-width="1.5"></path>
        <path d="M535.28 191.04L607.91 175.99" stroke="#132e65" stroke-width="1.5"></path>
        <path d="M535.28 191.04L532.88 112.77" stroke="#132e65" stroke-width="1.5"></path>
        <path d="M535.28 191.04L553.71 269.39" stroke="#132e65" stroke-width="1.5"></path>
        <path d="M535.28 191.04L604.39 124.4" stroke="#132e65" stroke-width="1.5"></path>
        <path d="M553.71 269.39L553.71 269.39" stroke="#132e65" stroke-width="1.5"></path>
        <path d="M553.71 269.39L542.06 334.87" stroke="#132e65" stroke-width="1.5"></path>
        <path d="M553.71 269.39L624.7 309.82" stroke="#132e65" stroke-width="1.5"></path>
        <path d="M542.06 334.87L542.06 334.87" stroke="#132e65" stroke-width="1.5"></path>
        <path d="M542.06 334.87L624.7 309.82" stroke="#132e65" stroke-width="1.5"></path>
        <path d="M542.06 334.87L449.92 264.32" stroke="#132e65" stroke-width="1.5"></path>
        <path d="M628.56 -49.23L628.56 -49.23" stroke="#132e65" stroke-width="1.5"></path>
        <path d="M628.56 -49.23L604.88 45.71" stroke="#132e65" stroke-width="1.5"></path>
        <path d="M628.56 -49.23L556.76 36.6" stroke="#132e65" stroke-width="1.5"></path>
        <path d="M628.56 -49.23L472.09 -33.16" stroke="#132e65" stroke-width="1.5"></path>
        <path d="M628.56 -49.23L604.39 124.4" stroke="#132e65" stroke-width="1.5"></path>
        <path d="M628.56 -49.23L463.88 29.7" stroke="#132e65" stroke-width="1.5"></path>
        <path d="M604.88 45.71L604.88 45.71" stroke="#132e65" stroke-width="1.5"></path>
        <path d="M604.88 45.71L604.39 124.4" stroke="#132e65" stroke-width="1.5"></path>
        <path d="M604.88 45.71L532.88 112.77" stroke="#132e65" stroke-width="1.5"></path>
        <path d="M604.88 45.71L550.95 -44.77" stroke="#132e65" stroke-width="1.5"></path>
        <path d="M604.39 124.4L604.39 124.4" stroke="#132e65" stroke-width="1.5"></path>
        <path d="M604.39 124.4L607.91 175.99" stroke="#132e65" stroke-width="1.5"></path>
        <path d="M604.39 124.4L532.88 112.77" stroke="#132e65" stroke-width="1.5"></path>
        <path d="M607.91 175.99L607.91 175.99" stroke="#132e65" stroke-width="1.5"></path>
        <path d="M607.91 175.99L532.88 112.77" stroke="#132e65" stroke-width="1.5"></path>
        <path d="M607.91 175.99L553.71 269.39" stroke="#132e65" stroke-width="1.5"></path>
        <path d="M624.7 309.82L624.7 309.82" stroke="#132e65" stroke-width="1.5"></path>
        <path d="M624.7 309.82L607.91 175.99" stroke="#132e65" stroke-width="1.5"></path>
        <path d="M624.7 309.82L482 335.28" stroke="#132e65" stroke-width="1.5"></path>
        <path d="M624.7 309.82L535.28 191.04" stroke="#132e65" stroke-width="1.5"></path>
        <path d="M624.7 309.82L449.92 264.32" stroke="#132e65" stroke-width="1.5"></path>
        <circle r="5" cx="-25.16" cy="192.56" fill="#132e65"></circle>
        <circle r="5" cx="-20.9" cy="245.04" fill="#132e65"></circle>
        <circle r="5" cx="-46.18" cy="324.77" fill="#132e65"></circle>
        <circle r="5" cx="48.55" cy="192.01" fill="#132e65"></circle>
        <circle r="5" cx="36.97" cy="262.08" fill="#132e65"></circle>
        <circle r="5" cx="20.09" cy="336.63" fill="#132e65"></circle>
        <circle r="5" cx="99.19" cy="168.75" fill="#132e65"></circle>
        <circle r="5" cx="119.72" cy="243.13" fill="#132e65"></circle>
        <circle r="5" cx="97.45" cy="319.77" fill="#132e65"></circle>
        <circle r="5" cx="181.57" cy="162.33" fill="#132e65"></circle>
        <circle r="5" cx="186.7" cy="265" fill="#132e65"></circle>
        <circle r="5" cx="171.08" cy="310.57" fill="#132e65"></circle>
        <circle r="5" cx="240.01" cy="113" fill="#132e65"></circle>
        <circle r="5" cx="261.28" cy="169.34" fill="#132e65"></circle>
        <circle r="5" cx="238.56" cy="266.64" fill="#132e65"></circle>
        <circle r="5" cx="267.77" cy="306.24" fill="#132e65"></circle>
        <circle r="5" cx="315.65" cy="125.61" fill="#132e65"></circle>
        <circle r="5" cx="335.17" cy="169.24" fill="#132e65"></circle>
        <circle r="5" cx="320.18" cy="244" fill="#132e65"></circle>
        <circle r="5" cx="335.64" cy="335.4" fill="#132e65"></circle>
        <circle r="5" cx="388.24" cy="-51.15" fill="#132e65"></circle>
        <circle r="5" cx="405.35" cy="28.38" fill="#132e65"></circle>
        <circle r="5" cx="381.09" cy="109.66" fill="#132e65"></circle>
        <circle r="5" cx="412.61" cy="184.75" fill="#132e65"></circle>
        <circle r="5" cx="388.63" cy="237.84" fill="#132e65"></circle>
        <circle r="5" cx="410.65" cy="319.12" fill="#132e65"></circle>
        <circle r="5" cx="472.09" cy="-33.16" fill="#132e65"></circle>
        <circle r="5" cx="463.88" cy="29.7" fill="#132e65"></circle>
        <circle r="5" cx="472.89" cy="117.37" fill="#132e65"></circle>
        <circle r="5" cx="449.92" cy="264.32" fill="#132e65"></circle>
        <circle r="5" cx="482" cy="335.28" fill="#132e65"></circle>
        <circle r="5" cx="550.95" cy="-44.77" fill="#132e65"></circle>
        <circle r="5" cx="556.76" cy="36.6" fill="#132e65"></circle>
        <circle r="5" cx="532.88" cy="112.77" fill="#132e65"></circle>
        <circle r="5" cx="535.28" cy="191.04" fill="#132e65"></circle>
        <circle r="5" cx="553.71" cy="269.39" fill="#132e65"></circle>
        <circle r="5" cx="542.06" cy="334.87" fill="#132e65"></circle>
        <circle r="5" cx="628.56" cy="-49.23" fill="#132e65"></circle>
        <circle r="5" cx="604.88" cy="45.71" fill="#132e65"></circle>
        <circle r="5" cx="604.39" cy="124.4" fill="#132e65"></circle>
        <circle r="5" cx="607.91" cy="175.99" fill="#132e65"></circle>
        <circle r="5" cx="624.7" cy="309.82" fill="#132e65"></circle>
        <path d="M264.05 313.47L264.05 313.47" stroke="hsl(228.5, 77.2%, 51.5%)" stroke-width="1.5"></path>
        <path d="M264.05 313.47L249.05 248.98" stroke="hsl(228.5, 77.2%, 51.5%)" stroke-width="1.5"></path>
        <path d="M264.05 313.47L187.3 317.02" stroke="hsl(228.5, 77.2%, 51.5%)" stroke-width="1.5"></path>
        <path d="M264.05 313.47L338.93 336.51" stroke="hsl(228.5, 77.2%, 51.5%)" stroke-width="1.5"></path>
        <path d="M463 33.51L463 33.51" stroke="hsl(228.5, 77.2%, 51.5%)" stroke-width="1.5"></path>
        <path d="M463 33.51L530.43 30.35" stroke="hsl(228.5, 77.2%, 51.5%)" stroke-width="1.5"></path>
        <path d="M463 33.51L471.65 110.59" stroke="hsl(228.5, 77.2%, 51.5%)" stroke-width="1.5"></path>
        <path d="M463 33.51L470.1 -49.26" stroke="hsl(228.5, 77.2%, 51.5%)" stroke-width="1.5"></path>
        <path d="M473.22 191.68L473.22 191.68" stroke="hsl(228.5, 77.2%, 51.5%)" stroke-width="1.5"></path>
        <path d="M473.22 191.68L454.44 244.78" stroke="hsl(228.5, 77.2%, 51.5%)" stroke-width="1.5"></path>
        <path d="M473.22 191.68L394.6 195.06" stroke="hsl(228.5, 77.2%, 51.5%)" stroke-width="1.5"></path>
        <path d="M530.43 30.35L530.43 30.35" stroke="hsl(228.5, 77.2%, 51.5%)" stroke-width="1.5"></path>
        <path d="M530.43 30.35L525.1 -39.92" stroke="hsl(228.5, 77.2%, 51.5%)" stroke-width="1.5"></path>
        <path d="M611.81 40.08L611.81 40.08" stroke="hsl(228.5, 77.2%, 51.5%)" stroke-width="1.5"></path>
        <path d="M611.81 40.08L530.43 30.35" stroke="hsl(228.5, 77.2%, 51.5%)" stroke-width="1.5"></path>
        <path d="M-31.48 251.1L-31.48 251.1" stroke="hsl(228.5, 77.2%, 51.5%)" stroke-width="1.5"></path>
        <path d="M-31.48 251.1L-32.98 325.06" stroke="hsl(228.5, 77.2%, 51.5%)" stroke-width="1.5"></path>
        <path d="M-31.48 251.1L52.89 259.05" stroke="hsl(228.5, 77.2%, 51.5%)" stroke-width="1.5"></path>
        <path d="M-31.48 251.1L28.27 337.7" stroke="hsl(228.5, 77.2%, 51.5%)" stroke-width="1.5"></path>
        <path d="M-32.98 325.06L-32.98 325.06" stroke="hsl(228.5, 77.2%, 51.5%)" stroke-width="1.5"></path>
        <path d="M-32.98 325.06L28.27 337.7" stroke="hsl(228.5, 77.2%, 51.5%)" stroke-width="1.5"></path>
        <path d="M-32.98 325.06L52.89 259.05" stroke="hsl(228.5, 77.2%, 51.5%)" stroke-width="1.5"></path>
        <path d="M-32.98 325.06L95.4 261.49" stroke="hsl(228.5, 77.2%, 51.5%)" stroke-width="1.5"></path>
        <path d="M-32.98 325.06L114.42 322.82" stroke="hsl(228.5, 77.2%, 51.5%)" stroke-width="1.5"></path>
        <path d="M-32.98 325.06L187.3 317.02" stroke="hsl(228.5, 77.2%, 51.5%)" stroke-width="1.5"></path>
        <path d="M52.89 259.05L52.89 259.05" stroke="hsl(228.5, 77.2%, 51.5%)" stroke-width="1.5"></path>
        <path d="M52.89 259.05L95.4 261.49" stroke="hsl(228.5, 77.2%, 51.5%)" stroke-width="1.5"></path>
        <path d="M52.89 259.05L28.27 337.7" stroke="hsl(228.5, 77.2%, 51.5%)" stroke-width="1.5"></path>
        <path d="M28.27 337.7L28.27 337.7" stroke="hsl(228.5, 77.2%, 51.5%)" stroke-width="1.5"></path>
        <path d="M28.27 337.7L114.42 322.82" stroke="hsl(228.5, 77.2%, 51.5%)" stroke-width="1.5"></path>
        <path d="M28.27 337.7L95.4 261.49" stroke="hsl(228.5, 77.2%, 51.5%)" stroke-width="1.5"></path>
        <path d="M95.4 261.49L95.4 261.49" stroke="hsl(228.5, 77.2%, 51.5%)" stroke-width="1.5"></path>
        <path d="M95.4 261.49L114.42 322.82" stroke="hsl(228.5, 77.2%, 51.5%)" stroke-width="1.5"></path>
        <path d="M95.4 261.49L178.92 240.64" stroke="hsl(228.5, 77.2%, 51.5%)" stroke-width="1.5"></path>
        <path d="M114.42 322.82L114.42 322.82" stroke="hsl(228.5, 77.2%, 51.5%)" stroke-width="1.5"></path>
        <path d="M114.42 322.82L187.3 317.02" stroke="hsl(228.5, 77.2%, 51.5%)" stroke-width="1.5"></path>
        <path d="M114.42 322.82L52.89 259.05" stroke="hsl(228.5, 77.2%, 51.5%)" stroke-width="1.5"></path>
        <path d="M114.42 322.82L178.92 240.64" stroke="hsl(228.5, 77.2%, 51.5%)" stroke-width="1.5"></path>
        <path d="M189.83 193.69L189.83 193.69" stroke="hsl(228.5, 77.2%, 51.5%)" stroke-width="1.5"></path>
        <path d="M189.83 193.69L178.92 240.64" stroke="hsl(228.5, 77.2%, 51.5%)" stroke-width="1.5"></path>
        <path d="M189.83 193.69L267.58 172.33" stroke="hsl(228.5, 77.2%, 51.5%)" stroke-width="1.5"></path>
        <path d="M178.92 240.64L178.92 240.64" stroke="hsl(228.5, 77.2%, 51.5%)" stroke-width="1.5"></path>
        <path d="M178.92 240.64L249.05 248.98" stroke="hsl(228.5, 77.2%, 51.5%)" stroke-width="1.5"></path>
        <path d="M187.3 317.02L187.3 317.02" stroke="hsl(228.5, 77.2%, 51.5%)" stroke-width="1.5"></path>
        <path d="M187.3 317.02L178.92 240.64" stroke="hsl(228.5, 77.2%, 51.5%)" stroke-width="1.5"></path>
        <path d="M187.3 317.02L249.05 248.98" stroke="hsl(228.5, 77.2%, 51.5%)" stroke-width="1.5"></path>
        <path d="M187.3 317.02L95.4 261.49" stroke="hsl(228.5, 77.2%, 51.5%)" stroke-width="1.5"></path>
        <path d="M267.58 172.33L267.58 172.33" stroke="hsl(228.5, 77.2%, 51.5%)" stroke-width="1.5"></path>
        <path d="M267.58 172.33L310.02 179.78" stroke="hsl(228.5, 77.2%, 51.5%)" stroke-width="1.5"></path>
        <path d="M267.58 172.33L308.14 234.82" stroke="hsl(228.5, 77.2%, 51.5%)" stroke-width="1.5"></path>
        <path d="M267.58 172.33L249.05 248.98" stroke="hsl(228.5, 77.2%, 51.5%)" stroke-width="1.5"></path>
        <path d="M267.58 172.33L178.92 240.64" stroke="hsl(228.5, 77.2%, 51.5%)" stroke-width="1.5"></path>
        <path d="M267.58 172.33L394.6 195.06" stroke="hsl(228.5, 77.2%, 51.5%)" stroke-width="1.5"></path>
        <path d="M249.05 248.98L249.05 248.98" stroke="hsl(228.5, 77.2%, 51.5%)" stroke-width="1.5"></path>
        <path d="M249.05 248.98L308.14 234.82" stroke="hsl(228.5, 77.2%, 51.5%)" stroke-width="1.5"></path>
        <path d="M249.05 248.98L189.83 193.69" stroke="hsl(228.5, 77.2%, 51.5%)" stroke-width="1.5"></path>
        <path d="M310.02 179.78L310.02 179.78" stroke="hsl(228.5, 77.2%, 51.5%)" stroke-width="1.5"></path>
        <path d="M310.02 179.78L308.14 234.82" stroke="hsl(228.5, 77.2%, 51.5%)" stroke-width="1.5"></path>
        <path d="M310.02 179.78L394.6 195.06" stroke="hsl(228.5, 77.2%, 51.5%)" stroke-width="1.5"></path>
        <path d="M310.02 179.78L249.05 248.98" stroke="hsl(228.5, 77.2%, 51.5%)" stroke-width="1.5"></path>
        <path d="M308.14 234.82L308.14 234.82" stroke="hsl(228.5, 77.2%, 51.5%)" stroke-width="1.5"></path>
        <path d="M308.14 234.82L387.58 257.06" stroke="hsl(228.5, 77.2%, 51.5%)" stroke-width="1.5"></path>
        <path d="M308.14 234.82L264.05 313.47" stroke="hsl(228.5, 77.2%, 51.5%)" stroke-width="1.5"></path>
        <path d="M338.93 336.51L338.93 336.51" stroke="hsl(228.5, 77.2%, 51.5%)" stroke-width="1.5"></path>
        <path d="M338.93 336.51L390.93 332.99" stroke="hsl(228.5, 77.2%, 51.5%)" stroke-width="1.5"></path>
        <path d="M338.93 336.51L387.58 257.06" stroke="hsl(228.5, 77.2%, 51.5%)" stroke-width="1.5"></path>
        <path d="M338.93 336.51L308.14 234.82" stroke="hsl(228.5, 77.2%, 51.5%)" stroke-width="1.5"></path>
        <path d="M338.93 336.51L249.05 248.98" stroke="hsl(228.5, 77.2%, 51.5%)" stroke-width="1.5"></path>
        <path d="M403.59 110.02L403.59 110.02" stroke="hsl(228.5, 77.2%, 51.5%)" stroke-width="1.5"></path>
        <path d="M403.59 110.02L471.65 110.59" stroke="hsl(228.5, 77.2%, 51.5%)" stroke-width="1.5"></path>
        <path d="M403.59 110.02L394.6 195.06" stroke="hsl(228.5, 77.2%, 51.5%)" stroke-width="1.5"></path>
        <path d="M403.59 110.02L463 33.51" stroke="hsl(228.5, 77.2%, 51.5%)" stroke-width="1.5"></path>
        <path d="M394.6 195.06L394.6 195.06" stroke="hsl(228.5, 77.2%, 51.5%)" stroke-width="1.5"></path>
        <path d="M394.6 195.06L387.58 257.06" stroke="hsl(228.5, 77.2%, 51.5%)" stroke-width="1.5"></path>
        <path d="M394.6 195.06L454.44 244.78" stroke="hsl(228.5, 77.2%, 51.5%)" stroke-width="1.5"></path>
        <path d="M394.6 195.06L308.14 234.82" stroke="hsl(228.5, 77.2%, 51.5%)" stroke-width="1.5"></path>
        <path d="M387.58 257.06L387.58 257.06" stroke="hsl(228.5, 77.2%, 51.5%)" stroke-width="1.5"></path>
        <path d="M387.58 257.06L454.44 244.78" stroke="hsl(228.5, 77.2%, 51.5%)" stroke-width="1.5"></path>
        <path d="M387.58 257.06L390.93 332.99" stroke="hsl(228.5, 77.2%, 51.5%)" stroke-width="1.5"></path>
        <path d="M387.58 257.06L475.89 314.63" stroke="hsl(228.5, 77.2%, 51.5%)" stroke-width="1.5"></path>
        <path d="M390.93 332.99L390.93 332.99" stroke="hsl(228.5, 77.2%, 51.5%)" stroke-width="1.5"></path>
        <path d="M390.93 332.99L475.89 314.63" stroke="hsl(228.5, 77.2%, 51.5%)" stroke-width="1.5"></path>
        <path d="M390.93 332.99L454.44 244.78" stroke="hsl(228.5, 77.2%, 51.5%)" stroke-width="1.5"></path>
        <path d="M470.1 -49.26L470.1 -49.26" stroke="hsl(228.5, 77.2%, 51.5%)" stroke-width="1.5"></path>
        <path d="M470.1 -49.26L525.1 -39.92" stroke="hsl(228.5, 77.2%, 51.5%)" stroke-width="1.5"></path>
        <path d="M470.1 -49.26L530.43 30.35" stroke="hsl(228.5, 77.2%, 51.5%)" stroke-width="1.5"></path>
        <path d="M470.1 -49.26L471.65 110.59" stroke="hsl(228.5, 77.2%, 51.5%)" stroke-width="1.5"></path>
        <path d="M470.1 -49.26L521.3 109.05" stroke="hsl(228.5, 77.2%, 51.5%)" stroke-width="1.5"></path>
        <path d="M470.1 -49.26L611.81 40.08" stroke="hsl(228.5, 77.2%, 51.5%)" stroke-width="1.5"></path>
        <path d="M471.65 110.59L471.65 110.59" stroke="hsl(228.5, 77.2%, 51.5%)" stroke-width="1.5"></path>
        <path d="M471.65 110.59L521.3 109.05" stroke="hsl(228.5, 77.2%, 51.5%)" stroke-width="1.5"></path>
        <path d="M471.65 110.59L473.22 191.68" stroke="hsl(228.5, 77.2%, 51.5%)" stroke-width="1.5"></path>
        <path d="M454.44 244.78L454.44 244.78" stroke="hsl(228.5, 77.2%, 51.5%)" stroke-width="1.5"></path>
        <path d="M454.44 244.78L475.89 314.63" stroke="hsl(228.5, 77.2%, 51.5%)" stroke-width="1.5"></path>
        <path d="M454.44 244.78L530.43 252.83" stroke="hsl(228.5, 77.2%, 51.5%)" stroke-width="1.5"></path>
        <path d="M475.89 314.63L475.89 314.63" stroke="hsl(228.5, 77.2%, 51.5%)" stroke-width="1.5"></path>
        <path d="M475.89 314.63L551.91 307.49" stroke="hsl(228.5, 77.2%, 51.5%)" stroke-width="1.5"></path>
        <path d="M475.89 314.63L530.43 252.83" stroke="hsl(228.5, 77.2%, 51.5%)" stroke-width="1.5"></path>
        <path d="M525.1 -39.92L525.1 -39.92" stroke="hsl(228.5, 77.2%, 51.5%)" stroke-width="1.5"></path>
        <path d="M525.1 -39.92L463 33.51" stroke="hsl(228.5, 77.2%, 51.5%)" stroke-width="1.5"></path>
        <path d="M525.1 -39.92L611.81 40.08" stroke="hsl(228.5, 77.2%, 51.5%)" stroke-width="1.5"></path>
        <path d="M525.1 -39.92L521.3 109.05" stroke="hsl(228.5, 77.2%, 51.5%)" stroke-width="1.5"></path>
        <path d="M525.1 -39.92L471.65 110.59" stroke="hsl(228.5, 77.2%, 51.5%)" stroke-width="1.5"></path>
        <path d="M521.3 109.05L521.3 109.05" stroke="hsl(228.5, 77.2%, 51.5%)" stroke-width="1.5"></path>
        <path d="M521.3 109.05L530.43 30.35" stroke="hsl(228.5, 77.2%, 51.5%)" stroke-width="1.5"></path>
        <path d="M521.3 109.05L554.46 186.6" stroke="hsl(228.5, 77.2%, 51.5%)" stroke-width="1.5"></path>
        <path d="M554.46 186.6L554.46 186.6" stroke="hsl(228.5, 77.2%, 51.5%)" stroke-width="1.5"></path>
        <path d="M554.46 186.6L617.61 174.24" stroke="hsl(228.5, 77.2%, 51.5%)" stroke-width="1.5"></path>
        <path d="M554.46 186.6L530.43 252.83" stroke="hsl(228.5, 77.2%, 51.5%)" stroke-width="1.5"></path>
        <path d="M554.46 186.6L473.22 191.68" stroke="hsl(228.5, 77.2%, 51.5%)" stroke-width="1.5"></path>
        <path d="M554.46 186.6L471.65 110.59" stroke="hsl(228.5, 77.2%, 51.5%)" stroke-width="1.5"></path>
        <path d="M554.46 186.6L454.44 244.78" stroke="hsl(228.5, 77.2%, 51.5%)" stroke-width="1.5"></path>
        <path d="M530.43 252.83L530.43 252.83" stroke="hsl(228.5, 77.2%, 51.5%)" stroke-width="1.5"></path>
        <path d="M530.43 252.83L551.91 307.49" stroke="hsl(228.5, 77.2%, 51.5%)" stroke-width="1.5"></path>
        <path d="M530.43 252.83L473.22 191.68" stroke="hsl(228.5, 77.2%, 51.5%)" stroke-width="1.5"></path>
        <path d="M551.91 307.49L551.91 307.49" stroke="hsl(228.5, 77.2%, 51.5%)" stroke-width="1.5"></path>
        <path d="M551.91 307.49L612.77 306.49" stroke="hsl(228.5, 77.2%, 51.5%)" stroke-width="1.5"></path>
        <path d="M551.91 307.49L454.44 244.78" stroke="hsl(228.5, 77.2%, 51.5%)" stroke-width="1.5"></path>
        <path d="M551.91 307.49L554.46 186.6" stroke="hsl(228.5, 77.2%, 51.5%)" stroke-width="1.5"></path>
        <path d="M551.91 307.49L473.22 191.68" stroke="hsl(228.5, 77.2%, 51.5%)" stroke-width="1.5"></path>
        <path d="M617.61 174.24L617.61 174.24" stroke="hsl(228.5, 77.2%, 51.5%)" stroke-width="1.5"></path>
        <path d="M617.61 174.24L521.3 109.05" stroke="hsl(228.5, 77.2%, 51.5%)" stroke-width="1.5"></path>
        <path d="M612.77 306.49L612.77 306.49" stroke="hsl(228.5, 77.2%, 51.5%)" stroke-width="1.5"></path>
        <path d="M612.77 306.49L530.43 252.83" stroke="hsl(228.5, 77.2%, 51.5%)" stroke-width="1.5"></path>
        <path d="M612.77 306.49L617.61 174.24" stroke="hsl(228.5, 77.2%, 51.5%)" stroke-width="1.5"></path>
        <circle r="25" cx="264.05" cy="313.47" fill="url(#SvgjsRadialGradient1019)"></circle>
        <circle r="25" cx="463" cy="33.51" fill="url(#SvgjsRadialGradient1019)"></circle>
        <circle r="25" cx="473.22" cy="191.68" fill="url(#SvgjsRadialGradient1019)"></circle>
        <circle r="25" cx="530.43" cy="30.35" fill="url(#SvgjsRadialGradient1019)"></circle>
        <circle r="25" cx="611.81" cy="40.08" fill="url(#SvgjsRadialGradient1019)"></circle>
        <circle r="5" cx="-31.48" cy="251.1" fill="#8b9ad9"></circle>
        <circle r="5" cx="-32.98" cy="325.06" fill="#8b9ad9"></circle>
        <circle r="5" cx="52.89" cy="259.05" fill="#8b9ad9"></circle>
        <circle r="5" cx="28.27" cy="337.7" fill="#8b9ad9"></circle>
        <circle r="5" cx="95.4" cy="261.49" fill="#8b9ad9"></circle>
        <circle r="5" cx="114.42" cy="322.82" fill="#8b9ad9"></circle>
        <circle r="5" cx="189.83" cy="193.69" fill="#8b9ad9"></circle>
        <circle r="5" cx="178.92" cy="240.64" fill="#8b9ad9"></circle>
        <circle r="5" cx="187.3" cy="317.02" fill="#8b9ad9"></circle>
        <circle r="5" cx="267.58" cy="172.33" fill="#8b9ad9"></circle>
        <circle r="5" cx="249.05" cy="248.98" fill="#8b9ad9"></circle>
        <circle r="5" cx="310.02" cy="179.78" fill="#8b9ad9"></circle>
        <circle r="5" cx="308.14" cy="234.82" fill="#8b9ad9"></circle>
        <circle r="5" cx="338.93" cy="336.51" fill="#8b9ad9"></circle>
        <circle r="5" cx="403.59" cy="110.02" fill="#8b9ad9"></circle>
        <circle r="5" cx="394.6" cy="195.06" fill="#8b9ad9"></circle>
        <circle r="5" cx="387.58" cy="257.06" fill="#8b9ad9"></circle>
        <circle r="5" cx="390.93" cy="332.99" fill="#8b9ad9"></circle>
        <circle r="5" cx="470.1" cy="-49.26" fill="#8b9ad9"></circle>
        <circle r="5" cx="471.65" cy="110.59" fill="#8b9ad9"></circle>
        <circle r="5" cx="454.44" cy="244.78" fill="#8b9ad9"></circle>
        <circle r="5" cx="475.89" cy="314.63" fill="#8b9ad9"></circle>
        <circle r="5" cx="525.1" cy="-39.92" fill="#8b9ad9"></circle>
        <circle r="5" cx="521.3" cy="109.05" fill="#8b9ad9"></circle>
        <circle r="5" cx="554.46" cy="186.6" fill="#8b9ad9"></circle>
        <circle r="5" cx="530.43" cy="252.83" fill="#8b9ad9"></circle>
        <circle r="5" cx="551.91" cy="307.49" fill="#8b9ad9"></circle>
        <circle r="5" cx="617.61" cy="174.24" fill="#8b9ad9"></circle>
        <circle r="5" cx="612.77" cy="306.49" fill="#8b9ad9"></circle>
    </g>
    <defs>
        <mask id="SvgjsMask1018">
            <rect width="575" height="240" fill="#ffffff"></rect>
        </mask>
        <radialGradient id="SvgjsRadialGradient1019">
            <stop stop-color="#ffffff" offset="0.1"></stop>
            <stop stop-color="#1735b3" offset="0.2"></stop>
            <stop stop-color="rgba(23, 53, 179, 0)" offset="1"></stop>
        </radialGradient>
    </defs>
</svg>